<svg  viewBox="0 0 61 61" fill="none" xmlns="http://www.w3.org/2000/svg">
<path d="M26.1095 0.282863C20.7228 1.05766 15.5083 3.24677 11.0808 6.89939L20.5998 16.4183C24.0188 12.0155 25.925 6.43206 26.1095 0.282863ZM30.5 26.3185L49.9192 6.89939C44.7046 2.59496 38.4079 0.319758 32.025 0C31.8774 7.85867 29.3808 15.0409 24.8058 20.6244L30.5 26.3185ZM6.89939 11.0808C3.24677 15.5083 1.05766 20.7228 0.282863 26.1095C6.43206 25.925 12.0278 24.0188 16.4183 20.5998L6.89939 11.0808ZM40.3756 36.1942C45.9468 31.6315 53.129 29.1349 61 28.975C60.6802 22.5921 58.405 16.2954 54.1006 11.0808L34.6815 30.5L40.3756 36.1942ZM30.5 34.6815L11.0808 54.1006C16.2954 58.3927 22.5921 60.6802 28.975 61C29.1349 53.129 31.6315 45.9468 36.1942 40.3756L30.5 34.6815ZM54.1006 49.9192C57.7532 45.4917 59.9423 40.2772 60.7171 34.8905C54.5556 35.0873 48.9722 36.9935 44.5817 40.4002L54.1006 49.9192ZM20.6244 24.8058C15.0409 29.3808 7.85867 31.8897 0 32.025C0.319758 38.4079 2.59496 44.7046 6.89939 49.9192L26.3185 30.5L20.6244 24.8058ZM34.8905 60.7171C40.2772 59.9423 45.4917 57.7532 49.9192 54.1006L40.4002 44.5817C36.9935 48.9722 35.0873 54.5679 34.8905 60.7171Z" fill="#CF4E05"/>
</svg>
