<svg width="59" height="51" viewBox="0 0 59 51" fill="none" xmlns="http://www.w3.org/2000/svg">
<path d="M57.4856 37.2288C58.5526 38.2958 58.5526 40.0257 57.4856 41.0926L48.3784 50.1979C46.6697 51.9066 43.7143 50.709 43.7143 48.2659V43.7143H37.0223C36.8349 43.7143 36.6496 43.6758 36.4778 43.6011C36.306 43.5264 36.1514 43.4173 36.0236 43.2803L27.9915 34.6745L34.0629 28.1694L40.0715 34.6072H43.7143V30.0557C43.7143 27.6153 46.6676 26.4131 48.3784 28.1238L57.4856 37.2288ZM1.36607 16.3929H10.9286L16.9371 22.8306L23.0085 16.3255L14.9765 7.71967C14.8487 7.58272 14.694 7.47352 14.5222 7.39887C14.3504 7.32421 14.1651 7.2857 13.9778 7.28571H1.36607C0.611659 7.28571 0 7.89737 0 8.65178V15.0268C0 15.7812 0.611659 16.3929 1.36607 16.3929ZM43.7143 16.3929V20.9446C43.7143 23.3876 46.6697 24.5852 48.3784 22.8766L57.4856 13.7713C58.5526 12.7042 58.5526 10.9743 57.4856 9.90743L48.3784 0.802448C46.6676 -0.90833 43.7143 0.293927 43.7143 2.7343V7.28571H37.0223C36.8349 7.28573 36.6496 7.32426 36.4778 7.39892C36.306 7.47357 36.1514 7.58275 36.0236 7.71967L10.9286 34.6072H1.36607C0.611659 34.6072 0 35.2188 0 35.9732V42.3482C0 43.1026 0.611659 43.7143 1.36607 43.7143H13.9778C14.3564 43.7143 14.7181 43.5571 14.9765 43.2803L40.0715 16.3929H43.7143Z" fill="#444444"/>
</svg>
